<?xml version="1.0" encoding="utf-8"?>
<!-- Generator: Adobe Illustrator 21.1.0, SVG Export Plug-In . SVG Version: 6.00 Build 0)  -->
<svg version="1.1" id="Layer_1" xmlns="http://www.w3.org/2000/svg" xmlns:xlink="http://www.w3.org/1999/xlink" x="0px" y="0px"
	 viewBox="0 0 147.8 132.1" style="enable-background:new 0 0 147.8 132.1;" xml:space="preserve">
<style type="text/css">
	.st0{fill:#FEFEFE;}
	.st1{fill:#85022D;}
	.st2{fill:#02855A;}
	.st3{fill:#010101;}
	.st4{fill:#040404;}
	.st5{fill:#030303;}
	.st6{fill:#070707;}
	.st7{fill:#8B0707;}
	.st8{fill:#05865B;}
	.st9{fill:#8E1212;}
	.st10{fill:#0B895F;}
	.st11{fill:#138B63;}
	.st12{fill:#06875D;}
	.st13{fill:#942222;}
	.st14{fill:#F4EDED;}
	.st15{fill:#992B2B;}
	.st16{fill:#27946F;}
	.st17{fill:#9B3030;}
	.st18{fill:#03865B;}
	.st19{fill:#F8F3F3;}
	.st20{fill:#E6EFEB;}
	.st21{fill:#ECF3F0;}
</style>
<g>
	<g>
		<path class="st0" d="M74.1,102.7c-24.3,0-48.6,0-72.9,0c-0.8,0-1-0.2-1-1c0-33.5,0-67,0-100.5c0-0.8,0.1-1,1-1
			c48.7,0,97.5,0,146.2,0c0.7,0,0.9,0.2,0.9,0.9c0,33.6,0,67.1,0,100.7c0,0.9-0.3,0.9-1,0.9C122.9,102.7,98.5,102.7,74.1,102.7z"/>
		<path d="M98.2,38c-1.8,0.5-3.5,0.9-5.1,1.5c-1.1,0.4-1.8,0.1-2.4-0.9c-1.6-3.1-3.1-6.2-4.7-9.3c-0.5-0.9-0.5-1.8,0.6-2.2
			c5.2-2.3,10-5.2,15.5-6.6c0.9-0.2,1.9-0.4,2.8-0.6c1.8-0.4,2-0.3,2.6,1.4c1.1,3.3,3.3,5.5,6.7,6.3c4.4,1.1,9.3-1.4,10.8-5.8
			c0.1-0.3,0.2-0.7,0.3-1c0.3-1,1-1.3,2-1.1c3.7,0.8,7.3,1.8,10.7,3.5c2.5,1.3,5.1,2.4,7.7,3.6c1.4,0.7,1.6,1.1,0.9,2.5
			c-1.5,3-3.1,6-4.6,9.1c-0.5,1.1-1.2,1.4-2.4,1c-1.7-0.6-3.3-1-5.1-1.5c0,0.5,0,0.9,0,1.4c0,10.4,0,20.8,0,31.2
			c0,2.2-0.2,2.5-2.5,2.5c-10.6,0-21.1,0-31.7,0c-1.9,0-2.2-0.3-2.2-2.2c0-10.5,0-21,0-31.4C98.2,38.9,98.2,38.5,98.2,38z"/>
		<path d="M1.7,36.9c0-8,0-16,0-24c0-0.8,0.1-1.3,1.1-1.5c2.7-0.8,4.5-2.6,5.2-5.4c0.1-0.6,0.4-0.8,1-0.8c1.7,0,3.4,0,5,0
			c0.7,0,0.8,0.3,0.8,0.9c0,2.1,0,4.2,0,6.2c0,1.3,0.4,1.7,1.7,1.7c0.7,0,1.4,0,2,0c1.6-0.2,2.9-1.6,2.9-3.3c0-1.5,0-3,0-4.6
			c0-0.4-0.2-1,0.5-0.9c0.6,0.1,1.6-0.5,1.8,0.6c0.8,3.1,2.8,5,5.9,5.8c0.4,0.1,0.4,0.3,0.4,0.6c0,0.3,0,0.6,0,0.8c0,16,0,32,0,48
			c0,1.1-0.3,1.3-1.3,1.3c-2.6-0.1-5.2,0-7.8,0c-0.6,0-0.8-0.1-0.8-0.8c-0.6-7.9-1.2-15.8-1.9-23.8c-0.4-5.6-0.8-11.1-1.2-16.7
			c-0.1-0.8-0.2-1.5-1.2-1.5c-1,0-1.2,0.7-1.2,1.6c-0.5,5.9-0.9,11.9-1.4,17.8c-0.4,5.8-0.8,11.5-1.3,17.3c-0.1,1.8-0.3,3.7-0.4,5.5
			c0,0.6-0.3,0.6-0.7,0.6c-2.8,0-5.6,0-8.4,0c-1,0-0.8-0.6-0.8-1.1C1.7,53,1.7,44.9,1.7,36.9z"/>
		<path class="st1" d="M68.1,4.3c-6.2,0-12.5,0-18.7,0c-0.3,0-0.6,0-1,0c-0.5-0.1-0.9-0.4-0.9-1c0-0.5,0.4-0.8,0.8-0.9
			c0.3-0.1,0.6,0,1,0c12.5,0,25,0,37.5,0c0,0,0.1,0,0.1,0c0.8,0,1.7-0.1,1.7,1c0,1-0.9,0.9-1.7,0.9C80.7,4.3,74.4,4.3,68.1,4.3z"/>
		<path class="st1" d="M116.4,82.3c6.2,0,12.5,0,18.7,0c0.3,0,0.6,0,1,0c0.5,0.1,0.9,0.4,0.9,0.9c0,0.6-0.4,0.9-0.9,0.9
			c-0.3,0-0.6,0-1,0c-12.5,0-25,0-37.5,0c-0.3,0-0.6,0-1,0c-0.5-0.1-0.8-0.4-0.8-0.9c0-0.5,0.3-0.8,0.8-0.9c0.3-0.1,0.6,0,1,0
			C103.8,82.3,110.1,82.3,116.4,82.3z"/>
		<path class="st2" d="M105.7,88.3c2.7,0,5.4,0,8.1,0c0.7,0,1.5,0,1.5,0.9c0,0.9-0.8,1-1.5,1c-5.5,0-11.1,0-16.6,0
			c-0.7,0-1.4-0.1-1.4-0.9c0-0.8,0.7-1,1.4-1C100,88.3,102.9,88.3,105.7,88.3z"/>
		<path class="st2" d="M56.5,10.3c-2.5,0-5,0-7.5,0c-0.7,0-1.4-0.1-1.4-0.9c0-0.8,0.7-1,1.4-1c5,0,10.1,0,15.1,0
			c0.7,0,1.4,0.1,1.4,0.9c0,0.8-0.7,1-1.4,1C61.6,10.3,59,10.3,56.5,10.3z"/>
		<path class="st3" d="M110.7,20.6c3.8,0.9,7.5,0.9,11.2,0c-0.5,2.2-2.7,3.9-5.1,4.1C114.1,24.9,111.7,23.3,110.7,20.6z"/>
		<path d="M8.2,0.7c1.9,0,3.8,0.1,5.6,0c1,0,0.9,0.4,0.9,1.1c0,0.6,0.2,1.2-0.8,1.1c-3.8-0.1-7.6-0.1-11.4,0c-1,0-0.8-0.6-0.8-1.1
			c0-0.6-0.1-1.1,0.9-1.1C4.4,0.8,6.3,0.7,8.2,0.7z"/>
		<path d="M25.7,0.7c1.2,0,2.3,0.1,3.5,0C30.2,0.6,30,1.3,30,1.9c0.1,0.7-0.1,1.1-0.9,1c-2.3-0.1-4.6-0.1-6.9,0
			c-1,0-0.8-0.6-0.8-1.1c0-0.6-0.1-1.2,0.9-1.1C23.4,0.8,24.5,0.7,25.7,0.7z"/>
		<path class="st4" d="M17,8.3c0-0.6,0-1.3,0-1.9c0-1.2,0.6-1.6,1.7-1.2c0.4,0.1,0.4,0.3,0.4,0.6c0,1.6,0,3.1,0,4.7
			c0,0.6-0.3,1-1,1.2c-0.8,0.1-1.2,0-1.1-0.9C17.1,9.9,17,9.1,17,8.3z"/>
		<path class="st5" d="M1.7,9.2c0-0.3,0-0.6,0-0.8c0-3.5,0-3.5,3.5-3.3c0.6,0,0.6,0.1,0.5,0.7C5,7.5,3.5,8.8,1.7,9.2z"/>
		<path class="st5" d="M30,9.3c-1.9-0.5-3.2-1.7-3.9-3.5c-0.2-0.5-0.2-0.8,0.4-0.7c0,0,0.1,0,0.1,0C30.2,5,30.2,5,30,9.3z"/>
		<path class="st6" d="M18,0.7c0.9-0.2,1.1,0.2,1.1,1c0,0.9-0.2,1.2-1.1,1.1c-0.8,0-1.1-0.2-1-1.1C17.1,1.2,16.9,0.4,18,0.7z"/>
		<path class="st7" d="M34.5,2.3c0.4-0.6-0.6-1.8,1-1.7c1.5,0.1,2.2,0.5,2.2,1.6c0,1-1,1.8-2.4,1.8C33.7,4,35,2.8,34.5,2.3z"/>
		<path class="st7" d="M84,82.5c0-0.1,0-0.2,0-0.2c0.2-0.5-0.6-1.4,0.6-1.5c1.5-0.1,2.2,0.2,2.4,1.3c0.2,0.9-0.2,1.5-1.1,1.9
			C84.3,84.6,84,84.4,84,82.5z"/>
		<path class="st8" d="M84,90.2c0-1,0-2,0-2.9c0-0.6,0.4-0.5,0.8-0.5c0.6,0,1.3-0.1,1.6,0.7c0.1,0.4-0.2,0.9-0.5,0.9
			c-1.2,0-1.6,0.7-1.3,1.9C84.3,90.3,84.2,90.3,84,90.2z"/>
		<path class="st8" d="M34.6,10c0-1,0-2,0-2.9c0-0.6,0.4-0.5,0.8-0.5c0.6,0,1.3-0.1,1.6,0.7c0.1,0.4-0.2,1-0.5,0.9
			c-1.3-0.1-1.4,0.8-1.4,1.8C34.8,10.1,34.7,10.1,34.6,10z"/>
		<path class="st9" d="M88.6,82.1c0.2,0,0.5-0.1,0.7,0c0.4,0.1,0.5,0.3,0.5,0.7c0,0.4-0.4,0.3-0.6,0.4c-0.4,0.1-0.8-0.1-1.1,0.3
			c0.1,0.2,0,0.3-0.2,0.3c-0.5-0.6-0.6-1.1,0.2-1.4C88.4,82.6,88.5,82.4,88.6,82.1z"/>
		<path class="st9" d="M38.5,3.6C38,3,37.9,2.5,38.7,2.2c0.3,0.3,0.4,0.1,0.5-0.2c0.2,0,0.5-0.1,0.7,0c0.4,0.1,0.5,0.3,0.5,0.7
			C40.4,3,40,2.9,39.8,3c-0.4,0.1-0.8-0.1-1.1,0.3C38.8,3.5,38.7,3.6,38.5,3.6z"/>
		<path class="st10" d="M38.1,9.9c-0.7-0.3-0.9-0.8-0.6-1.4c0.4-0.7,1-0.9,1.8-0.5c0,0.2-0.1,0.3-0.3,0.4c-0.9,0.1-0.8,0.7-0.6,1.3
			C38.4,9.9,38.3,10,38.1,9.9z"/>
		<path class="st10" d="M87.5,90c-0.7-0.3-0.9-0.8-0.6-1.4c0.4-0.7,1-0.9,1.8-0.5c0,0.2-0.1,0.3-0.3,0.4c-0.9,0.1-0.8,0.7-0.6,1.3
			C87.9,90,87.8,90.2,87.5,90z"/>
		<path class="st11" d="M39.1,8.2c0.1-0.1,0.2-0.1,0.3-0.2C40,8.4,40,9,39.6,9.6c-0.4,0.5-0.9,0.7-1.5,0.3c0.1-0.1,0.2-0.1,0.3-0.2
			C38.8,9.3,39.1,8.8,39.1,8.2z"/>
		<path class="st11" d="M87.5,90c0.1-0.1,0.2-0.1,0.3-0.2c0.4-0.4,0.7-0.9,0.7-1.5c0.1-0.1,0.2-0.1,0.3-0.2c0.7,0.4,0.7,1.1,0.3,1.6
			C88.7,90.3,88.2,90.5,87.5,90z"/>
		<path class="st12" d="M90.7,88.5c-0.4,0.5,0,1.2-0.5,1.7c0.1-0.7-0.7-1.5,0.3-2.1C90.6,88.2,90.8,88.3,90.7,88.5z"/>
		<path class="st12" d="M41.3,8.4c-0.4,0.5,0,1.2-0.5,1.7C40.8,9.3,40,8.5,41,8C41.2,8.1,41.4,8.1,41.3,8.4z"/>
		<path class="st13" d="M87.9,83.7c0.1-0.1,0.1-0.2,0.2-0.3c0.4,0.5,0.9,0.4,1.5,0.1C88.9,84.5,88.8,84.5,87.9,83.7z"/>
		<path class="st13" d="M38.5,3.6c0.1-0.1,0.1-0.2,0.2-0.3c0.4,0.5,0.9,0.4,1.5,0.1C39.5,4.3,39.3,4.3,38.5,3.6z"/>
		<path class="st14" d="M39.1,1.9c0.1,0.4,0.6,0.1,0.7,0.5c-0.8,0.3-0.8,0.3-1.1-0.3C38.8,2.1,39,2,39.1,1.9z"/>
		<path class="st14" d="M88.6,82.1c0.1,0.4,0.6,0.1,0.7,0.5c-0.8,0.3-0.8,0.3-1.1-0.3C88.3,82.2,88.4,82.2,88.6,82.1z"/>
		<path class="st15" d="M41.8,2.1c0,0.2-0.1,0.3-0.3,0.3c-0.2,0-0.3-0.2-0.2-0.3c0-0.1,0-0.3,0.3-0.3C41.7,1.8,41.8,1.9,41.8,2.1z"
			/>
		<path class="st16" d="M41.3,8.4C41.2,8.2,41.1,8.1,41,8c0.3,0.1,0.6-0.3,1-0.2C42,8.4,41.5,8.1,41.3,8.4z"/>
		<path class="st15" d="M90.9,82.5c-0.2,0-0.3-0.1-0.3-0.3c0-0.1,0.1-0.3,0.2-0.4c0.2-0.1,0.3,0.1,0.3,0.3
			C91.2,82.4,91.1,82.5,90.9,82.5z"/>
		<path class="st17" d="M41.5,3.4c0.2,0,0.3,0.1,0.3,0.3c0,0.2-0.1,0.3-0.3,0.3c-0.2,0.1-0.3-0.2-0.3-0.3
			C41.2,3.6,41.3,3.4,41.5,3.4z"/>
		<path class="st17" d="M90.9,83.5c0.2,0,0.3,0.1,0.3,0.3c0,0.2-0.1,0.3-0.3,0.3c-0.2,0.1-0.3-0.2-0.3-0.3
			C90.6,83.7,90.7,83.6,90.9,83.5z"/>
		<path class="st16" d="M90.7,88.5c-0.1-0.1-0.1-0.3-0.2-0.4c0.3,0.1,0.6-0.3,1-0.2C91.5,88.5,90.9,88.3,90.7,88.5z"/>
		<path class="st18" d="M43.2,9.6C43.1,9.8,43,10,42.9,10c-0.2,0.1-0.3-0.1-0.4-0.3c0-0.1,0.2-0.3,0.3-0.3
			C42.9,9.4,43.1,9.5,43.2,9.6z"/>
		<path class="st18" d="M43.2,8c-0.1,0.1-0.2,0.3-0.3,0.3c-0.2,0.1-0.4-0.1-0.4-0.3c0-0.1,0.2-0.3,0.3-0.3C42.9,7.7,43.1,7.9,43.2,8
			z"/>
		<path class="st18" d="M92.4,88.6c-0.2-0.1-0.3-0.2-0.3-0.3c-0.1-0.2,0.1-0.3,0.3-0.4c0.1,0,0.3,0.2,0.3,0.3
			C92.6,88.3,92.5,88.4,92.4,88.6z"/>
		<path class="st18" d="M92.7,89.8c-0.1,0.1-0.2,0.3-0.4,0.3c-0.2,0-0.4-0.1-0.3-0.3c0-0.1,0.2-0.3,0.3-0.3
			C92.4,89.6,92.5,89.7,92.7,89.8z"/>
		<path class="st19" d="M37,2.4c-0.1,0.8-0.7,1.2-1.4,1.2c-1-0.1-0.4-1-0.5-1.5C35,1.7,34.8,1,35.6,1C36.4,1.1,37,1.4,37,2.4z"/>
		<path class="st19" d="M84.4,82.6c0.3-0.5-0.4-1.4,0.7-1.3c0.7,0,1.3,0.4,1.3,1.2c0,0.9-0.6,1.3-1.4,1.3
			C84,83.8,84.8,82.9,84.4,82.6z"/>
		<path class="st20" d="M84.8,88.3c-0.3,0-0.3-0.3-0.3-0.6c0-0.4,0.2-0.6,0.6-0.5c0.3,0,0.7,0.2,0.6,0.6
			C85.7,88.2,85.4,88.3,84.8,88.3z"/>
		<path class="st20" d="M36.3,7.6c-0.1,0.4-0.4,0.6-0.8,0.6c-0.5,0-0.5-0.3-0.5-0.6c0-0.3,0.1-0.5,0.5-0.5C35.9,7,36.2,7.1,36.3,7.6
			z"/>
		<path class="st21" d="M39.1,8.2c0.5,0.8,0.5,1.4-0.7,1.5C38,9.4,37.8,9,38.1,8.6C38.3,8.1,38.7,8.1,39.1,8.2z"/>
		<path class="st21" d="M88.5,88.4c0.5,0.8,0.5,1.4-0.7,1.5c-0.4-0.3-0.6-0.6-0.3-1.1C87.7,88.3,88.1,88.3,88.5,88.4z"/>
	</g>
</g>
<g>
	<g>
		<path class="st0" d="M37.1,132.7c-13.5,0-26.9,0-40.4,0c-0.8,0-1-0.1-1-1c0-20.1,0-40.2,0-60.3c0-0.8,0.2-0.9,0.9-0.9
			c27,0,54,0,81,0c0.7,0,0.9,0.1,0.9,0.9c0,20.2,0,40.3,0,60.5c0,0.8-0.2,0.8-0.9,0.8C64.1,132.7,50.6,132.7,37.1,132.7z"/>
		<path d="M52.4,94.2c3.9,0.5,7.7,0.9,11.5,1.3c1.2,0.1,1.8,0.7,2.2,1.7c1.4,3.3,0.9,5.5-1.7,8.1c-0.3,0.3-0.6,0.6-0.8,1
			c-0.5,1-1.7,0.5-2.2,1c-0.6,0.6-0.9,1.4-1.9,1.5c-0.2,0-0.5,0.2-0.7-0.1c-0.8-0.9-1-0.2-1.3,0.4c-0.6,1.2-1.1,1.4-2.3,0.8
			c-0.4-0.2-0.6-0.2-0.9,0.2c-0.9,1-2,1.4-3.3,0.7c-0.4-0.2-0.7,0-1,0.2c-0.4,0.3-0.9,0.6-1.4,0.6c-1.6-0.2-3.2,0-4.7-0.1
			c-1-0.1-2,0.1-2.9,0c-1.5-0.2-3.1,0.1-4.5-0.7c-0.4-0.2-0.7,0-1,0.1c-0.8,0.3-1.6,0.6-2.2-0.4c-0.2-0.2-0.5-0.3-0.8-0.2
			c-0.1,0.1-0.3,0.1-0.4,0.2c-1.1,0.5-2.1-0.6-2.9-0.2c-1,0.5-1.8,0.9-2.9,0.3c-0.3-0.2-0.6,0-0.9,0.2c-0.3,0.3-0.7,0.4-1.1,0.4
			c-1.1-0.1-2.2-0.2-3.3-0.2c-1,0-2.1-0.7-3.2,0.2c0,0-0.1,0-0.1,0c-1-1.1-2.2,0.2-3-0.1c-2.6-0.8-5.5-0.7-8-2
			c-1-0.5-1.3-1.4-1.4-2.5c0-2.4,0-4.9,0.9-7.2c0.4-1.1,0.4-2.3,0.5-3.5c0.1-1.4,0.5-2.7,1-4.2c2.8,7.6,9,10.6,16,12.5
			c7.3,2,14.8,2.8,22.4,2.3c2.7-0.2,5.5-0.4,8.2-0.8c0.5-0.1,0.9-0.2,1.3-0.4c-4.2-0.4-8.3-0.6-12.5-1.1c-7.5-0.9-15-1.9-22-5.1
			c-5-2.2-8.9-5.7-10.5-11.2c-0.4-1.2-0.2-1.4,1-1.4c1,0,1.9,0.3,2.5,1.2c0.9,1.1,1.5,2.4,2,3.7c0.7,1.8,2,2.5,3.8,2.2
			c3.5-0.5,6.3-2.3,9-4.5c0.6-0.5,0.6-1,0.2-1.6c-0.5-0.7-0.8-1.4-1-2.3c-0.3-1.3,0-2.4,1-3.2c1-0.8,2.1-0.9,3.2-0.3
			c1.7,0.9,2.8,2.4,4.1,3.6c1.7,1.6,1.8,3.7,2.1,5.8c0,0.2,0,0.5,0.1,0.7c0.1,0.7,0.5,1.1,1.2,1c0.7-0.2,0.9-0.7,0.8-1.4
			c-0.1-0.6-0.3-1.2-0.2-1.9c1.3,0.4,1.7,1.2,1.9,2.4c0.1,0.6,0.2,1.2,0.3,1.8c0.1,0.7,0.6,1,1.2,0.9c0.6-0.1,0.9-0.5,0.8-1.1
			c0-0.1-0.1-0.3,0-0.4c0.1-0.4-0.5-1.1,0.2-1.2c0.7-0.1,1.3,0.4,1.4,1.2c0.1,0.6,0.2,1.2,0.3,1.8c0.1,0.8,0.3,1.7,1.3,1.5
			c1-0.2,0.9-1,0.7-1.8c-0.1-0.4-0.4-1.1,0.2-1.2c0.7-0.2,1.2,0.3,1.4,1c0.2,0.9,0.4,1.9,0.5,2.8c0.1,0.7,0.5,1,1.1,1
			c0.7,0,0.9-0.6,0.8-1.2C52.7,96.1,52.6,95.1,52.4,94.2z"/>
		<path class="st1" d="M36.2,124.8c-6.3,0-12.5,0-18.8,0c-0.3,0-0.7,0-1,0c-0.5-0.1-0.8-0.4-0.8-0.9c0-0.5,0.4-0.8,0.8-0.9
			c0.3-0.1,0.6,0,1,0c12.5,0,25,0,37.5,0c0.2,0,0.3,0,0.5,0c0.7,0,1.4,0.1,1.4,1c0,0.8-0.7,0.9-1.4,0.9
			C49,124.8,42.6,124.8,36.2,124.8z"/>
		<path class="st2" d="M24.8,128.9c2.6,0,5.1,0,7.7,0c0.7,0,1.5,0.1,1.5,1c0,0.9-0.8,1-1.5,1c-5.1,0-10.3,0-15.4,0
			c-0.7,0-1.4-0.2-1.4-1c0-0.8,0.7-0.9,1.4-0.9C19.7,128.9,22.3,128.9,24.8,128.9C24.8,128.9,24.8,128.9,24.8,128.9z"/>
		<path class="st7" d="M4,121.4c1.5,0,2.3,0.7,2.2,1.8c-0.1,1-1.1,1.9-2.4,1.6c-1.6-0.3-0.4-1.7-0.7-2.5
			C2.9,121.4,3.5,121.3,4,121.4z"/>
		<path class="st8" d="M3.4,130.8c-0.4-1-0.2-2.1-0.3-3.1c0-0.6,0.5-0.4,0.8-0.4c0.6,0,1.2,0,1.5,0.7c0.2,0.5-0.2,1-0.4,1
			C3.7,129,3.4,129.7,3.4,130.8z"/>
		<path class="st9" d="M7.7,122.6c0.2,0,0.5-0.1,0.7,0c0.4,0.1,0.5,0.3,0.5,0.7c0,0.4-0.4,0.3-0.6,0.4c-0.4,0.1-0.8-0.1-1.1,0.3
			c0.1,0.2,0,0.3-0.2,0.3c-0.5-0.6-0.6-1.1,0.2-1.4C7.6,123.2,7.7,123,7.7,122.6z"/>
		<path class="st10" d="M6.7,130.6c-0.7-0.3-0.9-0.8-0.6-1.4c0.4-0.7,1-0.9,1.8-0.5c0,0.2-0.1,0.3-0.3,0.4c-0.9,0.1-0.8,0.7-0.6,1.3
			C7,130.6,6.9,130.7,6.7,130.6z"/>
		<path class="st11" d="M7.6,128.9c0.1-0.1,0.2-0.1,0.3-0.2c0.7,0.4,0.7,1.1,0.3,1.6c-0.4,0.5-0.9,0.7-1.5,0.3
			c0.1-0.1,0.2-0.1,0.3-0.2C7.4,130,7.6,129.5,7.6,128.9z"/>
		<path class="st12" d="M9.8,129.1c-0.4,0.5,0,1.2-0.5,1.7c0.1-0.7-0.7-1.5,0.3-2.1C9.7,128.8,10,128.8,9.8,129.1z"/>
		<path class="st13" d="M7,124.3c0.1-0.1,0.1-0.2,0.2-0.3c0.4,0.5,0.9,0.4,1.5,0.1C8.1,125,7.9,125,7,124.3z"/>
		<path class="st14" d="M7.7,122.6c0.1,0.4,0.6,0.1,0.7,0.5c-0.8,0.3-0.8,0.3-1.1-0.3C7.4,122.8,7.5,122.7,7.7,122.6z"/>
		<path class="st15" d="M10.1,123.1c-0.2,0-0.3-0.1-0.3-0.3c0-0.1,0.1-0.3,0.2-0.4c0.2-0.1,0.3,0.1,0.3,0.3
			C10.3,122.9,10.3,123,10.1,123.1z"/>
		<path class="st17" d="M10.3,124.5c0,0.2-0.2,0.3-0.3,0.3c-0.1,0-0.2-0.2-0.2-0.4c0-0.2,0.1-0.3,0.3-0.3
			C10.3,124.1,10.4,124.3,10.3,124.5z"/>
		<path class="st16" d="M9.8,129.1c-0.1-0.1-0.1-0.3-0.2-0.4c0.3-0.1,0.6-0.1,1-0.2C10.6,129.1,10,128.8,9.8,129.1z"/>
		<path class="st18" d="M11.8,128.7c-0.1,0.1-0.2,0.3-0.3,0.3c-0.2,0.1-0.4-0.1-0.4-0.3c0-0.1,0.2-0.3,0.3-0.3
			C11.5,128.4,11.6,128.6,11.8,128.7z"/>
		<path class="st18" d="M11.9,130.5c-0.2,0.1-0.3,0.2-0.5,0.2c-0.2,0-0.4-0.2-0.4-0.3c0-0.1,0.2-0.3,0.3-0.3
			C11.5,130.1,11.6,130.3,11.9,130.5z"/>
		<path class="st19" d="M5.6,123.2c-0.1,0.8-0.7,1.2-1.5,1.1c-1-0.2-0.4-1.1-0.5-1.6c-0.1-0.4-0.2-0.9,0.6-0.9
			C5,121.8,5.6,122.1,5.6,123.2z"/>
		<path class="st20" d="M4.9,128.3c-0.1,0.4-0.4,0.6-0.8,0.6c-0.5,0-0.5-0.3-0.5-0.6c0-0.3,0.1-0.5,0.5-0.5
			C4.5,127.7,4.8,127.8,4.9,128.3z"/>
		<path class="st21" d="M7.6,128.9c0.5,0.8,0.5,1.4-0.7,1.5c-0.4-0.3-0.6-0.6-0.3-1.1C6.8,128.8,7.2,128.9,7.6,128.9z"/>
	</g>
</g>
</svg>
