<?xml version="1.0" encoding="utf-8"?>
<!-- Generator: Adobe Illustrator 21.1.0, SVG Export Plug-In . SVG Version: 6.00 Build 0)  -->
<svg version="1.1" id="Capa_1" xmlns="http://www.w3.org/2000/svg" xmlns:xlink="http://www.w3.org/1999/xlink" x="0px" y="0px"
	 viewBox="0 0 512 547" style="enable-background:new 0 0 512 547;" xml:space="preserve">
<style type="text/css">
	.st0{fill:#C1251E;}
</style>
<g>
	<g>
		<path d="M196,187c-5.5,0-10,4.5-10,10s4.5,10,10,10s10-4.5,10-10S201.5,187,196,187z"/>
	</g>
</g>
<g>
	<g>
		<path d="M482,327h-96v-30c0-16.5-13.5-30-30-30h-30v-20h10c16.5,0,30-13.5,30-30v-40c0-16.5-13.5-30-30-30H176
			c-16.5,0-30,13.5-30,30v40c0,16.5,13.5,30,30,30h10v20h-30c-16.5,0-30,13.5-30,30v30H30c-16.5,0-30,13.5-30,30
			c0,4.5,0,175.2,0,180c0,5.5,4.5,10,10,10h492c5.5,0,10-4.5,10-10c0-4.8,0-175.5,0-180C512,340.5,498.5,327,482,327z M386,387h43
			v100h-43V387z M176,227c-5.5,0-10-4.5-10-10v-40c0-5.5,4.5-10,10-10h160c5.5,0,10,4.5,10,10v40c0,5.5-4.5,10-10,10
			C334.5,227,177.4,227,176,227z M306,247v20H206v-20H306z M146,297c0-5.5,4.5-10,10-10c8.6,0,192.8,0,200,0c5.5,0,10,4.5,10,10v10
			H146V297z M146,327h220v160h-20V377c0-5.5-4.5-10-10-10H176c-5.5,0-10,4.5-10,10v110h-20V327z M326,387v100h-60V387H326z M246,387
			v100h-60V387H246z M20,357c0-5.5,4.5-10,10-10h96v20H20V357z M126,387v100H83V387H126z M20,387h43v100H20V387z M492,527H20v-20
			h472V527z M492,487h-43V387h43V487z M492,367H386v-20h96c5.5,0,10,4.5,10,10V367z"/>
	</g>
</g>
<g>
	<g>
		<path d="M316,187h-80c-5.5,0-10,4.5-10,10s4.5,10,10,10h80c5.5,0,10-4.5,10-10S321.5,187,316,187z"/>
	</g>
</g>
<g>
	<path id="Facebook_Places" class="st0" d="M315.7,34.1c-0.5-1.8-1.6-3.8-2.5-5.5C303.4,7.6,282.1,0,264.9,0
		c-23.1,0-48.5,13.9-51.9,42.5v5.8c0,0.2,0.1,2.4,0.2,3.5c1.9,13.6,13.9,28.1,22.8,41.8c9.6,14.6,19.6,29,29.5,43.4
		c6.1-9.4,12.2-18.9,18.2-28c1.6-2.7,3.5-5.4,5.1-7.9c1.1-1.7,3.2-3.4,4.1-5c9.6-15.8,25.1-31.8,25.1-47.5v-6.5
		C318.2,40.4,315.8,34.5,315.7,34.1z M265.3,63.4c-6.8,0-14.2-3-17.9-11.4c-0.5-1.3-0.5-4-0.5-4.3V44c0-10.7,10.1-15.6,19-15.6
		c10.9,0,19.3,7.8,19.3,17.5C285.1,55.7,276.2,63.4,265.3,63.4z"/>
</g>
</svg>
