<?xml version="1.0" encoding="utf-8"?>
<!-- Generator: Adobe Illustrator 23.0.1, SVG Export Plug-In . SVG Version: 6.00 Build 0)  -->
<svg version="1.1" id="Camada_1" xmlns="http://www.w3.org/2000/svg" xmlns:xlink="http://www.w3.org/1999/xlink" x="0px" y="0px"
	 viewBox="0 0 873 143.09" style="enable-background:new 0 0 873 143.09;" xml:space="preserve">
<g>
	<defs>
		<path id="SVGID_1_" d="M0,1.27c8,0,16,0,24,0c0,47,0,94,0,141c-8,0-16,0-24,0C0,95.27,0,48.26,0,1.27L0,1.27z M101,1.27
			c7.67,0,15.33,0,23,0c0,4,0,12,0,12c0.89,0.25,0.8,0.22,1.69,0.47C135.38-1.88,174.83-1.71,191,8.26
			c36.06,22.25,29.5,76.45,29,134c-7.67,0-15.33,0-23,0c0.54-41.79,7.46-97.26-19-113c-4.5-2.67-13.4-6.95-22-5
			c-10.83,2.45-19.8,6.99-25,15c-11.83,18.22-7.38,72.99-7,103c-7.67,0-15.33,0-23,0C101,95.27,101,48.26,101,1.27L101,1.27z
			 M284.02,106.26c7.66-0.67,15.33-1.33,23-2c8.38,20.49,37.17,14.34,55.99,9c1.42-2.48,4.19-5.16,5-8c0.91-3.18-0.4-8.32-1-10
			c-6.13-17.15-23.99-9.46-43-14c-18.99-4.53-45.36-18.7-37.99-48c6.7-26.67,46.04-41.95,78.99-28c13.37,5.66,18.84,15.74,24,30
			c-2.67,0-5.33,0-8,0c-2.86,1.82-12.48,1.65-16,2c-3.33-12.8-28.81-16.82-43.99-11c-5.83,2.23-8.14,6.85-12,11
			c0.66,27.13,23.08,16.31,45,22c20.18,5.24,45.58,21.57,36.99,51C378.65,152.58,287.4,155.02,284.02,106.26L284.02,106.26z
			 M614.98,1.25c32.87-0.5,52.79,8.27,64.99,28c3.88,6.27,7.1,15.53,9,23c2.17,8.54,1.89,23.77,0,32
			c-8.23,35.89-19.11,50-54.99,57.99c-11.58,2.58-25.67-1.23-33-4c-25.96-9.8-34.4-24.41-40.99-53.99c-2.21-9.93-1.9-27.01,1-36
			c5.87-18.21,17.22-34.75,34-42C600.58,3.83,609.51,4.57,614.98,1.25L614.98,1.25z M754,1.27c7.67,0,15.33,0,23,0v63
			c0.46,0.12,0.4,0.11,0.87,0.23c10.05-17.43,27.25-30.41,39.13-46.23c2.42-3.23,10.1-15.62,13-17c10.33,0,31,0,31,0
			c0.13,0.43,0.12,0.4,0.25,0.83C849.87,9.55,838.03,30.68,828,41.27c-3.13,3.31-11.14,10.07-10,14c2.39,7.77,9.01,13.69,13,20
			c6.83,10.79,12.18,21.2,19,32c7.29,11.54,16.56,22.52,23,35c-9.33,0-18.67,0-28,0c-11.71-24.42-30.06-45.98-44-69
			c-0.33,0-0.67,0-1,0c0,0.33,0,0.67,0,1c-2.61,1.98-22.09,23.73-23,26c0,14,0,28,0,42c-7.67,0-15.33,0-23,0
			C754,95.27,754,48.26,754,1.27L754,1.27z M441,6.27c22,0,44,0,66,0c0,6.33,0,12.67,0,19c-7,0.67-14,1.33-21,2
			c-0.16,27.05-3.36,61.45,2,84.99c5.65,3.77,9.13,6.66,19,7c0,7.67,0,15.33,0,23c-57.2,0.57-45.63-59.79-45-114.99
			c-7-0.67-14-1.33-21-2C441,18.93,441,12.6,441,6.27L441,6.27z"/>
	</defs>
	<use xlink:href="#SVGID_1_"  style="overflow:visible;"/>
	<clipPath id="SVGID_2_">
		<use xlink:href="#SVGID_1_"  style="overflow:visible;"/>
	</clipPath>
	<use xlink:href="#SVGID_1_"  style="overflow:visible;fill:none;stroke:#FFFFFF;stroke-miterlimit:10;"/>
</g>
</svg>
